<svg xmlns="http://www.w3.org/2000/svg" version="1.1" xmlns:xlink="http://www.w3.org/1999/xlink" width="96mm" height="72mm" viewBox="0 0 480 360"><g id="レコード"><path d="M252.20046343431721 53.40698600171279Q264.40092686863443 54.96466442472003 275.7296435843801 59.682912405335955Q287.05836030012574 64.40116038595188 294.1893204610924 74.55084695254742Q301.320280622059 84.70053351914295 308.4800769468569 93.34900513857846Q315.6398732716549 101.99747675801399 320.5394435251175 112.11832917731931Q325.43901377858015 122.23918159662463 327.1981147507735 133.32123398480152Q328.9572157229669 144.4032863729784 332.7959131447366 156.41866211297878Q336.63461056650624 168.43403785297917 332.7403971721548 180.1209392304164Q328.8461837778034 191.80784060785368 322.1436939893773 202.10911620684072Q315.44120420095123 212.4103918058278 304.2773323782406 217.757399324059Q293.11346055552997 223.10440684229022 283.14080566497046 228.43879648528542Q273.168150774411 233.7731861282806 262.2148661510528 236.45889155169556Q251.2615815276945 239.1445969751105 240.0066795425241 239.0917229516147Q228.7517775573537 239.03884892811897 218.91834511566168 233.56072318387908Q209.08491267396963 228.0825974396392 199.93483681571294 222.91078133473172Q190.78476095745626 217.73896522982423 184.61601951863292 209.32990263632138Q178.44727807980962 200.92084004281855 173.03199699614274 192.49091404562327Q167.61671591247585 184.060988048428 161.94288818713477 175.0167595033434Q156.26906046179366 165.97253095825883 155.47348437787693 155.30225997459394Q154.6779082939602 144.63198899092907 159.32697101888758 134.96515248427434Q163.97603374381495 125.29831597761962 168.1501504580221 116.17499497483709Q172.3242671722292 107.05167397205457 175.56833091087833 95.94674615266138Q178.81239464952745 84.84181833326817 187.81353492162242 78.14400206450031Q196.8146751937174 71.44618579573245 207.26081798465492 67.31026528089988Q217.70696077559242 63.17434476606732 228.8534803877962 57.511826172386435Q240 51.84930757870555 252.20046343431721 53.40698600171279Z " fill-opacity="0.5" fill="#0b7ae7" stroke-linejoin="round" stroke-linecap="round" stroke-opacity="1" stroke-width="0.5" stroke="#000000"></path></g><g id="中心"><path d="M266.25 123.75L266.25 176.25L213.75 176.25L213.75 123.75L266.25 123.75Z " fill-opacity="1" fill="#ffffff" stroke-linejoin="round" stroke-linecap="round" stroke-opacity="1" stroke-width="0.5" stroke="#000000"></path></g></svg>